<mxfile host="app.diagrams.net" modified="2022-07-26T03:00:23.774Z" agent="5.0 (X11; Linux x86_64) AppleWebKit/537.36 (KHTML, like Gecko) Chrome/98.0.4758.102 Safari/537.36" etag="XlQTOR-ewfBITGFnnjgI" version="20.2.0" type="github">
  <diagram id="C5RBs43oDa-KdzZeNtuy" name="Page-1">
    <mxGraphModel dx="1363" dy="773" grid="1" gridSize="10" guides="1" tooltips="1" connect="1" arrows="1" fold="1" page="1" pageScale="1" pageWidth="827" pageHeight="1169" math="0" shadow="0">
      <root>
        <mxCell id="WIyWlLk6GJQsqaUBKTNV-0" />
        <mxCell id="WIyWlLk6GJQsqaUBKTNV-1" parent="WIyWlLk6GJQsqaUBKTNV-0" />
        <mxCell id="S02CySSfXvLz46jKatXd-33" style="edgeStyle=orthogonalEdgeStyle;rounded=0;orthogonalLoop=1;jettySize=auto;html=1;exitX=0.5;exitY=1;exitDx=0;exitDy=0;" edge="1" parent="WIyWlLk6GJQsqaUBKTNV-1" source="WIyWlLk6GJQsqaUBKTNV-3" target="WIyWlLk6GJQsqaUBKTNV-7">
          <mxGeometry relative="1" as="geometry" />
        </mxCell>
        <mxCell id="WIyWlLk6GJQsqaUBKTNV-3" value="获取目标终点姿态goal_point=(x0,y0,h0)" style="rounded=1;whiteSpace=wrap;html=1;fontSize=12;glass=0;strokeWidth=1;shadow=0;" parent="WIyWlLk6GJQsqaUBKTNV-1" vertex="1">
          <mxGeometry x="100" y="160" width="120" height="40" as="geometry" />
        </mxCell>
        <mxCell id="S02CySSfXvLz46jKatXd-34" style="edgeStyle=orthogonalEdgeStyle;rounded=0;orthogonalLoop=1;jettySize=auto;html=1;" edge="1" parent="WIyWlLk6GJQsqaUBKTNV-1" source="WIyWlLk6GJQsqaUBKTNV-7" target="S02CySSfXvLz46jKatXd-3">
          <mxGeometry relative="1" as="geometry" />
        </mxCell>
        <mxCell id="WIyWlLk6GJQsqaUBKTNV-7" value="基于终点坐标和朝向建立坐标系XYO，得到&lt;br&gt;对接起点start_point=(x0-dist_start,y0,h0)，&lt;br&gt;对接中间点middle_point=(x0-dist_middle,y0,h0)" style="rounded=1;whiteSpace=wrap;html=1;fontSize=12;glass=0;strokeWidth=1;shadow=0;" parent="WIyWlLk6GJQsqaUBKTNV-1" vertex="1">
          <mxGeometry x="30" y="220" width="260" height="60" as="geometry" />
        </mxCell>
        <mxCell id="S02CySSfXvLz46jKatXd-36" style="edgeStyle=orthogonalEdgeStyle;rounded=0;orthogonalLoop=1;jettySize=auto;html=1;entryX=0.5;entryY=0;entryDx=0;entryDy=0;" edge="1" parent="WIyWlLk6GJQsqaUBKTNV-1" source="S02CySSfXvLz46jKatXd-0" target="S02CySSfXvLz46jKatXd-5">
          <mxGeometry relative="1" as="geometry" />
        </mxCell>
        <mxCell id="S02CySSfXvLz46jKatXd-0" value="first_docking_?" style="rhombus;whiteSpace=wrap;html=1;shadow=0;fontFamily=Helvetica;fontSize=12;align=center;strokeWidth=1;spacing=6;spacingTop=-4;" vertex="1" parent="WIyWlLk6GJQsqaUBKTNV-1">
          <mxGeometry x="95" y="480" width="130" height="40" as="geometry" />
        </mxCell>
        <mxCell id="S02CySSfXvLz46jKatXd-1" value="开始" style="ellipse;whiteSpace=wrap;html=1;" vertex="1" parent="WIyWlLk6GJQsqaUBKTNV-1">
          <mxGeometry x="135" y="106" width="50" height="20" as="geometry" />
        </mxCell>
        <mxCell id="S02CySSfXvLz46jKatXd-35" style="edgeStyle=orthogonalEdgeStyle;rounded=0;orthogonalLoop=1;jettySize=auto;html=1;" edge="1" parent="WIyWlLk6GJQsqaUBKTNV-1" source="S02CySSfXvLz46jKatXd-3" target="S02CySSfXvLz46jKatXd-0">
          <mxGeometry relative="1" as="geometry" />
        </mxCell>
        <mxCell id="S02CySSfXvLz46jKatXd-3" value="获取车辆速度ego_speed，和姿态&lt;br&gt;ego_point=(x1,y1,h1)，将其旋转平移到目标终点坐标系XYO下，ego_point=(xe,ye,he)，其中&lt;br&gt;xe = x1*cos(h1-h0)+y1*sin(h1-h0)&lt;br&gt;ye = -x1*sin(h1-h0)+y1*cos(h1-h0)&lt;br&gt;he = h1-h0" style="rounded=1;whiteSpace=wrap;html=1;fontSize=12;glass=0;strokeWidth=1;shadow=0;" vertex="1" parent="WIyWlLk6GJQsqaUBKTNV-1">
          <mxGeometry x="35" y="340" width="250" height="100" as="geometry" />
        </mxCell>
        <mxCell id="S02CySSfXvLz46jKatXd-32" style="edgeStyle=orthogonalEdgeStyle;rounded=0;orthogonalLoop=1;jettySize=auto;html=1;exitX=0.5;exitY=1;exitDx=0;exitDy=0;" edge="1" parent="WIyWlLk6GJQsqaUBKTNV-1" source="S02CySSfXvLz46jKatXd-1" target="WIyWlLk6GJQsqaUBKTNV-3">
          <mxGeometry relative="1" as="geometry">
            <mxPoint x="160" y="130" as="sourcePoint" />
          </mxGeometry>
        </mxCell>
        <mxCell id="S02CySSfXvLz46jKatXd-37" style="edgeStyle=orthogonalEdgeStyle;rounded=0;orthogonalLoop=1;jettySize=auto;html=1;" edge="1" parent="WIyWlLk6GJQsqaUBKTNV-1" source="S02CySSfXvLz46jKatXd-5" target="S02CySSfXvLz46jKatXd-17">
          <mxGeometry relative="1" as="geometry" />
        </mxCell>
        <mxCell id="S02CySSfXvLz46jKatXd-55" style="edgeStyle=orthogonalEdgeStyle;rounded=0;orthogonalLoop=1;jettySize=auto;html=1;exitX=1;exitY=0.5;exitDx=0;exitDy=0;" edge="1" parent="WIyWlLk6GJQsqaUBKTNV-1" source="S02CySSfXvLz46jKatXd-5" target="S02CySSfXvLz46jKatXd-21">
          <mxGeometry relative="1" as="geometry" />
        </mxCell>
        <mxCell id="S02CySSfXvLz46jKatXd-5" value="fabs(he)&amp;gt;&lt;br&gt;heading_criteria_?" style="rhombus;whiteSpace=wrap;html=1;shadow=0;fontFamily=Helvetica;fontSize=12;align=center;strokeWidth=1;spacing=6;spacingTop=-4;" vertex="1" parent="WIyWlLk6GJQsqaUBKTNV-1">
          <mxGeometry x="77.5" y="550" width="165" height="50" as="geometry" />
        </mxCell>
        <mxCell id="S02CySSfXvLz46jKatXd-40" style="edgeStyle=orthogonalEdgeStyle;rounded=0;orthogonalLoop=1;jettySize=auto;html=1;" edge="1" parent="WIyWlLk6GJQsqaUBKTNV-1" source="S02CySSfXvLz46jKatXd-6" target="S02CySSfXvLz46jKatXd-7">
          <mxGeometry relative="1" as="geometry" />
        </mxCell>
        <mxCell id="S02CySSfXvLz46jKatXd-44" style="edgeStyle=orthogonalEdgeStyle;rounded=0;orthogonalLoop=1;jettySize=auto;html=1;exitX=1;exitY=0.5;exitDx=0;exitDy=0;" edge="1" parent="WIyWlLk6GJQsqaUBKTNV-1" source="S02CySSfXvLz46jKatXd-6" target="S02CySSfXvLz46jKatXd-10">
          <mxGeometry relative="1" as="geometry" />
        </mxCell>
        <mxCell id="S02CySSfXvLz46jKatXd-6" value="ego_speed &amp;lt;=0?" style="rhombus;whiteSpace=wrap;html=1;shadow=0;fontFamily=Helvetica;fontSize=12;align=center;strokeWidth=1;spacing=6;spacingTop=-4;" vertex="1" parent="WIyWlLk6GJQsqaUBKTNV-1">
          <mxGeometry x="95" y="840" width="130" height="40" as="geometry" />
        </mxCell>
        <mxCell id="S02CySSfXvLz46jKatXd-41" style="edgeStyle=orthogonalEdgeStyle;rounded=0;orthogonalLoop=1;jettySize=auto;html=1;exitX=0.5;exitY=1;exitDx=0;exitDy=0;entryX=0.5;entryY=0;entryDx=0;entryDy=0;" edge="1" parent="WIyWlLk6GJQsqaUBKTNV-1" source="S02CySSfXvLz46jKatXd-7" target="S02CySSfXvLz46jKatXd-8">
          <mxGeometry relative="1" as="geometry" />
        </mxCell>
        <mxCell id="S02CySSfXvLz46jKatXd-43" style="edgeStyle=orthogonalEdgeStyle;rounded=0;orthogonalLoop=1;jettySize=auto;html=1;exitX=1;exitY=0.5;exitDx=0;exitDy=0;entryX=0.5;entryY=0;entryDx=0;entryDy=0;" edge="1" parent="WIyWlLk6GJQsqaUBKTNV-1" source="S02CySSfXvLz46jKatXd-7" target="S02CySSfXvLz46jKatXd-14">
          <mxGeometry relative="1" as="geometry" />
        </mxCell>
        <mxCell id="S02CySSfXvLz46jKatXd-7" value="xe&amp;lt;-dist_middle" style="rhombus;whiteSpace=wrap;html=1;shadow=0;fontFamily=Helvetica;fontSize=12;align=center;strokeWidth=1;spacing=6;spacingTop=-4;" vertex="1" parent="WIyWlLk6GJQsqaUBKTNV-1">
          <mxGeometry x="95" y="900" width="130" height="40" as="geometry" />
        </mxCell>
        <mxCell id="S02CySSfXvLz46jKatXd-54" style="edgeStyle=orthogonalEdgeStyle;rounded=0;orthogonalLoop=1;jettySize=auto;html=1;entryX=0.5;entryY=0;entryDx=0;entryDy=0;" edge="1" parent="WIyWlLk6GJQsqaUBKTNV-1" source="S02CySSfXvLz46jKatXd-8" target="S02CySSfXvLz46jKatXd-13">
          <mxGeometry relative="1" as="geometry">
            <Array as="points">
              <mxPoint x="160" y="1040" />
              <mxPoint x="361" y="1040" />
            </Array>
          </mxGeometry>
        </mxCell>
        <mxCell id="S02CySSfXvLz46jKatXd-8" value="cmd_speed = -k3_&lt;br&gt;direction_ = -1" style="rounded=1;whiteSpace=wrap;html=1;fontSize=12;glass=0;strokeWidth=1;shadow=0;align=left;" vertex="1" parent="WIyWlLk6GJQsqaUBKTNV-1">
          <mxGeometry x="105" y="961" width="110" height="40" as="geometry" />
        </mxCell>
        <mxCell id="S02CySSfXvLz46jKatXd-45" style="edgeStyle=orthogonalEdgeStyle;rounded=0;orthogonalLoop=1;jettySize=auto;html=1;exitX=0.5;exitY=1;exitDx=0;exitDy=0;" edge="1" parent="WIyWlLk6GJQsqaUBKTNV-1" source="S02CySSfXvLz46jKatXd-10" target="S02CySSfXvLz46jKatXd-19">
          <mxGeometry relative="1" as="geometry" />
        </mxCell>
        <mxCell id="S02CySSfXvLz46jKatXd-46" style="edgeStyle=orthogonalEdgeStyle;rounded=0;orthogonalLoop=1;jettySize=auto;html=1;entryX=0.5;entryY=0;entryDx=0;entryDy=0;" edge="1" parent="WIyWlLk6GJQsqaUBKTNV-1" source="S02CySSfXvLz46jKatXd-10" target="S02CySSfXvLz46jKatXd-20">
          <mxGeometry relative="1" as="geometry" />
        </mxCell>
        <mxCell id="S02CySSfXvLz46jKatXd-10" value="xe&amp;lt;-dist_start" style="rhombus;whiteSpace=wrap;html=1;shadow=0;fontFamily=Helvetica;fontSize=12;align=center;strokeWidth=1;spacing=6;spacingTop=-4;" vertex="1" parent="WIyWlLk6GJQsqaUBKTNV-1">
          <mxGeometry x="375" y="900" width="130" height="40" as="geometry" />
        </mxCell>
        <mxCell id="S02CySSfXvLz46jKatXd-13" value="cmd_steer = &lt;br&gt;atan2(-L*(k2_*he/ego_speed+k1_*ye*sin(he)/he),1)" style="rounded=1;whiteSpace=wrap;html=1;fontSize=12;glass=0;strokeWidth=1;shadow=0;align=left;" vertex="1" parent="WIyWlLk6GJQsqaUBKTNV-1">
          <mxGeometry x="218" y="1080" width="285" height="40" as="geometry" />
        </mxCell>
        <mxCell id="S02CySSfXvLz46jKatXd-51" style="edgeStyle=orthogonalEdgeStyle;rounded=0;orthogonalLoop=1;jettySize=auto;html=1;" edge="1" parent="WIyWlLk6GJQsqaUBKTNV-1" source="S02CySSfXvLz46jKatXd-14" target="S02CySSfXvLz46jKatXd-13">
          <mxGeometry relative="1" as="geometry" />
        </mxCell>
        <mxCell id="S02CySSfXvLz46jKatXd-14" value="cmd_speed = k3_&lt;br&gt;direction_ = 1" style="rounded=1;whiteSpace=wrap;html=1;fontSize=12;glass=0;strokeWidth=1;shadow=0;align=left;" vertex="1" parent="WIyWlLk6GJQsqaUBKTNV-1">
          <mxGeometry x="230" y="961" width="100" height="40" as="geometry" />
        </mxCell>
        <mxCell id="S02CySSfXvLz46jKatXd-38" style="edgeStyle=orthogonalEdgeStyle;rounded=0;orthogonalLoop=1;jettySize=auto;html=1;entryX=0.5;entryY=0;entryDx=0;entryDy=0;" edge="1" parent="WIyWlLk6GJQsqaUBKTNV-1" source="S02CySSfXvLz46jKatXd-17" target="S02CySSfXvLz46jKatXd-18">
          <mxGeometry relative="1" as="geometry" />
        </mxCell>
        <mxCell id="S02CySSfXvLz46jKatXd-56" style="edgeStyle=orthogonalEdgeStyle;rounded=0;orthogonalLoop=1;jettySize=auto;html=1;exitX=1;exitY=0.5;exitDx=0;exitDy=0;" edge="1" parent="WIyWlLk6GJQsqaUBKTNV-1" source="S02CySSfXvLz46jKatXd-17">
          <mxGeometry relative="1" as="geometry">
            <mxPoint x="160" y="840" as="targetPoint" />
            <Array as="points">
              <mxPoint x="280" y="680" />
              <mxPoint x="280" y="810" />
              <mxPoint x="160" y="810" />
            </Array>
          </mxGeometry>
        </mxCell>
        <mxCell id="S02CySSfXvLz46jKatXd-17" value="fabs(ego_speed) &amp;lt; ego_speed_protection_?" style="rhombus;whiteSpace=wrap;html=1;shadow=0;fontFamily=Helvetica;fontSize=12;align=center;strokeWidth=1;spacing=6;spacingTop=-4;" vertex="1" parent="WIyWlLk6GJQsqaUBKTNV-1">
          <mxGeometry x="52" y="650" width="215" height="60" as="geometry" />
        </mxCell>
        <mxCell id="S02CySSfXvLz46jKatXd-39" style="edgeStyle=orthogonalEdgeStyle;rounded=0;orthogonalLoop=1;jettySize=auto;html=1;" edge="1" parent="WIyWlLk6GJQsqaUBKTNV-1" source="S02CySSfXvLz46jKatXd-18" target="S02CySSfXvLz46jKatXd-6">
          <mxGeometry relative="1" as="geometry" />
        </mxCell>
        <mxCell id="S02CySSfXvLz46jKatXd-18" value="ego_speed = direction_ * ego_speed_protection_" style="rounded=1;whiteSpace=wrap;html=1;fontSize=12;glass=0;strokeWidth=1;shadow=0;" vertex="1" parent="WIyWlLk6GJQsqaUBKTNV-1">
          <mxGeometry x="90" y="740" width="140" height="40" as="geometry" />
        </mxCell>
        <mxCell id="S02CySSfXvLz46jKatXd-52" style="edgeStyle=orthogonalEdgeStyle;rounded=0;orthogonalLoop=1;jettySize=auto;html=1;" edge="1" parent="WIyWlLk6GJQsqaUBKTNV-1" source="S02CySSfXvLz46jKatXd-19" target="S02CySSfXvLz46jKatXd-13">
          <mxGeometry relative="1" as="geometry" />
        </mxCell>
        <mxCell id="S02CySSfXvLz46jKatXd-19" value="cmd_speed = -k3_&lt;br&gt;direction_ = -1" style="rounded=1;whiteSpace=wrap;html=1;fontSize=12;glass=0;strokeWidth=1;shadow=0;align=left;" vertex="1" parent="WIyWlLk6GJQsqaUBKTNV-1">
          <mxGeometry x="385" y="961" width="110" height="40" as="geometry" />
        </mxCell>
        <mxCell id="S02CySSfXvLz46jKatXd-53" style="edgeStyle=orthogonalEdgeStyle;rounded=0;orthogonalLoop=1;jettySize=auto;html=1;entryX=0.5;entryY=0;entryDx=0;entryDy=0;" edge="1" parent="WIyWlLk6GJQsqaUBKTNV-1" source="S02CySSfXvLz46jKatXd-20" target="S02CySSfXvLz46jKatXd-13">
          <mxGeometry relative="1" as="geometry">
            <mxPoint x="440" y="1050" as="targetPoint" />
            <Array as="points">
              <mxPoint x="560" y="1040" />
              <mxPoint x="361" y="1040" />
            </Array>
          </mxGeometry>
        </mxCell>
        <mxCell id="S02CySSfXvLz46jKatXd-20" value="cmd_speed = k3_&lt;br&gt;direction_ = 1" style="rounded=1;whiteSpace=wrap;html=1;fontSize=12;glass=0;strokeWidth=1;shadow=0;align=left;" vertex="1" parent="WIyWlLk6GJQsqaUBKTNV-1">
          <mxGeometry x="510" y="961" width="100" height="40" as="geometry" />
        </mxCell>
        <mxCell id="S02CySSfXvLz46jKatXd-57" style="edgeStyle=orthogonalEdgeStyle;rounded=0;orthogonalLoop=1;jettySize=auto;html=1;exitX=0.5;exitY=0;exitDx=0;exitDy=0;entryX=0.5;entryY=0;entryDx=0;entryDy=0;" edge="1" parent="WIyWlLk6GJQsqaUBKTNV-1" source="S02CySSfXvLz46jKatXd-21" target="S02CySSfXvLz46jKatXd-22">
          <mxGeometry relative="1" as="geometry" />
        </mxCell>
        <mxCell id="S02CySSfXvLz46jKatXd-21" value="first_docking_ = false&lt;br&gt;second_docking_ = true" style="rounded=1;whiteSpace=wrap;html=1;fontSize=12;glass=0;strokeWidth=1;shadow=0;align=left;" vertex="1" parent="WIyWlLk6GJQsqaUBKTNV-1">
          <mxGeometry x="290" y="480" width="140" height="40" as="geometry" />
        </mxCell>
        <mxCell id="S02CySSfXvLz46jKatXd-58" style="edgeStyle=orthogonalEdgeStyle;rounded=0;orthogonalLoop=1;jettySize=auto;html=1;exitX=0.5;exitY=1;exitDx=0;exitDy=0;" edge="1" parent="WIyWlLk6GJQsqaUBKTNV-1" source="S02CySSfXvLz46jKatXd-22" target="S02CySSfXvLz46jKatXd-23">
          <mxGeometry relative="1" as="geometry" />
        </mxCell>
        <mxCell id="S02CySSfXvLz46jKatXd-22" value="second_docking_?" style="rhombus;whiteSpace=wrap;html=1;shadow=0;fontFamily=Helvetica;fontSize=12;align=center;strokeWidth=1;spacing=6;spacingTop=-4;" vertex="1" parent="WIyWlLk6GJQsqaUBKTNV-1">
          <mxGeometry x="495" y="420" width="130" height="40" as="geometry" />
        </mxCell>
        <mxCell id="S02CySSfXvLz46jKatXd-59" style="edgeStyle=orthogonalEdgeStyle;rounded=0;orthogonalLoop=1;jettySize=auto;html=1;entryX=0.5;entryY=0;entryDx=0;entryDy=0;" edge="1" parent="WIyWlLk6GJQsqaUBKTNV-1" source="S02CySSfXvLz46jKatXd-23" target="S02CySSfXvLz46jKatXd-25">
          <mxGeometry relative="1" as="geometry" />
        </mxCell>
        <mxCell id="S02CySSfXvLz46jKatXd-23" value="fabs(xe)&amp;gt;&lt;br&gt;position_criteria_?" style="rhombus;whiteSpace=wrap;html=1;shadow=0;fontFamily=Helvetica;fontSize=12;align=center;strokeWidth=1;spacing=6;spacingTop=-4;" vertex="1" parent="WIyWlLk6GJQsqaUBKTNV-1">
          <mxGeometry x="477.5" y="510" width="165" height="50" as="geometry" />
        </mxCell>
        <mxCell id="S02CySSfXvLz46jKatXd-60" style="edgeStyle=orthogonalEdgeStyle;rounded=0;orthogonalLoop=1;jettySize=auto;html=1;" edge="1" parent="WIyWlLk6GJQsqaUBKTNV-1" source="S02CySSfXvLz46jKatXd-25" target="S02CySSfXvLz46jKatXd-27">
          <mxGeometry relative="1" as="geometry" />
        </mxCell>
        <mxCell id="S02CySSfXvLz46jKatXd-25" value="direction_ = -1&lt;br&gt;cmd_speed = -k4_*xe&lt;br&gt;cmd_steer = &lt;br&gt;atan2(-L*(k2_*he/ego_speed+k1_*ye*sin(he)/he),1)" style="rounded=1;whiteSpace=wrap;html=1;fontSize=12;glass=0;strokeWidth=1;shadow=0;align=left;" vertex="1" parent="WIyWlLk6GJQsqaUBKTNV-1">
          <mxGeometry x="417.5" y="590" width="285" height="70" as="geometry" />
        </mxCell>
        <mxCell id="S02CySSfXvLz46jKatXd-61" style="edgeStyle=orthogonalEdgeStyle;rounded=0;orthogonalLoop=1;jettySize=auto;html=1;entryX=0.5;entryY=0;entryDx=0;entryDy=0;" edge="1" parent="WIyWlLk6GJQsqaUBKTNV-1" source="S02CySSfXvLz46jKatXd-27" target="S02CySSfXvLz46jKatXd-28">
          <mxGeometry relative="1" as="geometry" />
        </mxCell>
        <mxCell id="S02CySSfXvLz46jKatXd-27" value="fabs(cmd_speed) &amp;lt; cmd_speed_protection_?" style="rhombus;whiteSpace=wrap;html=1;shadow=0;fontFamily=Helvetica;fontSize=12;align=center;strokeWidth=1;spacing=6;spacingTop=-4;" vertex="1" parent="WIyWlLk6GJQsqaUBKTNV-1">
          <mxGeometry x="447.5" y="700" width="225" height="60" as="geometry" />
        </mxCell>
        <mxCell id="S02CySSfXvLz46jKatXd-28" value="cmd_speed = direction_ * cmd_speed_protection_" style="rounded=1;whiteSpace=wrap;html=1;fontSize=12;glass=0;strokeWidth=1;shadow=0;" vertex="1" parent="WIyWlLk6GJQsqaUBKTNV-1">
          <mxGeometry x="490" y="790" width="140" height="40" as="geometry" />
        </mxCell>
        <mxCell id="S02CySSfXvLz46jKatXd-47" style="edgeStyle=orthogonalEdgeStyle;rounded=0;orthogonalLoop=1;jettySize=auto;html=1;exitX=0.5;exitY=1;exitDx=0;exitDy=0;" edge="1" parent="WIyWlLk6GJQsqaUBKTNV-1">
          <mxGeometry relative="1" as="geometry">
            <mxPoint x="284" y="1001" as="sourcePoint" />
            <mxPoint x="284" y="1001" as="targetPoint" />
          </mxGeometry>
        </mxCell>
        <mxCell id="S02CySSfXvLz46jKatXd-62" value="初始化&lt;br&gt;&lt;br&gt;first_docking_ = true&lt;br&gt;second_docking_ = false&lt;br&gt;direction_ = -1&lt;br&gt;加载配置参数&lt;br&gt;k1_,k2_,k3_,k4_&lt;br&gt;ego_speed_protection_&lt;br&gt;cmd_speed_protection_&lt;br&gt;heading_criteria_&lt;br&gt;position_criteria_" style="rounded=1;whiteSpace=wrap;html=1;fontSize=12;glass=0;strokeWidth=1;shadow=0;align=left;" vertex="1" parent="WIyWlLk6GJQsqaUBKTNV-1">
          <mxGeometry x="677" y="40" width="150" height="190" as="geometry" />
        </mxCell>
      </root>
    </mxGraphModel>
  </diagram>
</mxfile>
